<svg width="40" height="51" viewBox="0 0 40 51" fill="none" xmlns="http://www.w3.org/2000/svg">
<path d="M10 40.8H30V35.7H10V40.8ZM10 30.6H30V25.5H10V30.6ZM5 51C3.625 51 2.4475 50.5002 1.4675 49.5006C0.487504 48.501 -0.00166242 47.3008 4.24448e-06 45.9V5.1C4.24448e-06 3.6975 0.490004 2.49645 1.47 1.49685C2.45 0.497254 3.62667 -0.00169567 5 4.32937e-06H25L40 15.3V45.9C40 47.3025 39.51 48.5035 38.53 49.5031C37.55 50.5027 36.3733 51.0017 35 51H5ZM22.5 17.85V5.1H5V45.9H35V17.85H22.5Z" fill="#4F381B"/>
</svg>
