<svg width="170" height="170" viewBox="0 0 170 170" fill="none" xmlns="http://www.w3.org/2000/svg">
<circle cx="85" cy="85" r="85" fill="#F5938B"/>
<path opacity="0.2" d="M119.608 70.4286C119.608 77.1531 117.649 83.7267 113.98 89.318C110.311 94.9092 105.096 99.2671 98.9938 101.84C92.892 104.414 86.1778 105.087 79.7003 103.775C73.2227 102.463 67.2726 99.2252 62.6026 94.4702C57.9325 89.7152 54.7521 83.657 53.4637 77.0616C52.1752 70.4663 52.8365 63.63 55.3639 57.4173C57.8913 51.2047 62.1714 45.8946 67.6628 42.1586C73.1542 38.4226 79.6104 36.4286 86.2149 36.4286C95.0712 36.4286 103.565 40.0107 109.827 46.3869C116.09 52.7632 119.608 61.4112 119.608 70.4286Z" fill="#4F381B"/>
<path d="M139.915 132.054C131.968 118.066 119.723 108.036 105.431 103.281C112.5 98.9963 117.993 92.4674 121.065 84.6969C124.137 76.9264 124.618 68.344 122.436 60.2677C120.254 52.1914 115.528 45.0677 108.985 39.9907C102.441 34.9137 94.4417 32.1641 86.2149 32.1641C77.9881 32.1641 69.9888 34.9137 63.4453 39.9907C56.9018 45.0677 52.1761 52.1914 49.9938 60.2677C47.8115 68.344 48.2933 76.9264 51.3652 84.6969C54.4372 92.4674 59.9294 98.9963 66.9984 103.281C52.7073 108.03 40.4615 118.06 32.515 132.054C32.2236 132.537 32.0303 133.076 31.9466 133.637C31.8628 134.198 31.8903 134.77 32.0273 135.321C32.1644 135.871 32.4083 136.387 32.7446 136.84C33.0809 137.292 33.5028 137.672 33.9855 137.956C34.4682 138.24 35.0018 138.422 35.5549 138.493C36.108 138.563 36.6693 138.52 37.2058 138.366C37.7423 138.212 38.2431 137.95 38.6786 137.596C39.1141 137.242 39.4755 136.802 39.7415 136.304C49.5715 119.006 66.9462 108.679 86.2149 108.679C105.484 108.679 122.858 119.006 132.688 136.304C132.954 136.802 133.316 137.242 133.751 137.596C134.187 137.95 134.688 138.212 135.224 138.366C135.761 138.52 136.322 138.563 136.875 138.493C137.428 138.422 137.962 138.24 138.444 137.956C138.927 137.672 139.349 137.292 139.685 136.84C140.022 136.387 140.265 135.871 140.403 135.321C140.54 134.77 140.567 134.198 140.483 133.637C140.4 133.076 140.206 132.537 139.915 132.054ZM56.9962 70.4286C56.9962 64.5446 58.7098 58.7927 61.9204 53.9004C65.131 49.008 69.6944 45.1949 75.0334 42.9432C80.3724 40.6915 86.2473 40.1023 91.9152 41.2502C97.5831 42.3981 102.789 45.2315 106.876 49.3921C110.962 53.5528 113.745 58.8537 114.872 64.6246C116 70.3956 115.421 76.3773 113.21 81.8134C110.998 87.2495 107.253 91.8958 102.448 95.1648C97.643 98.4338 91.9939 100.179 86.2149 100.179C78.4682 100.17 71.0411 97.0331 65.5633 91.4557C60.0855 85.8783 57.0045 78.3162 56.9962 70.4286Z" fill="#4F381B"/>
</svg>
